HIERARCHY
ROOT root
{
	OFFSET 0.000000 0.000000 0.000000
	CHANNELS 6 Xposition Yposition Zposition Zrotation Yrotation Xrotation
	JOINT lhip
	{
		OFFSET 0.058581 -0.082280 -0.017664
		CHANNELS 3 Zrotation Yrotation Xrotation
		JOINT lknee
		{
			OFFSET 0.043451 -0.386469 0.008037
			CHANNELS 3 Zrotation Yrotation Xrotation
			JOINT lankle
			{
				OFFSET -0.014790 -0.426874 -0.037428
				CHANNELS 3 Zrotation Yrotation Xrotation
				JOINT ltoe
				{
					OFFSET 0.041054 -0.060286 0.122042
					CHANNELS 3 Zrotation Yrotation Xrotation
					End Site
					{
						OFFSET 0.000000 0.000000 0.000000
					}
				}
			}
		}
	}
	JOINT rhip
	{
		OFFSET -0.060310 -0.090513 -0.013543
		CHANNELS 3 Zrotation Yrotation Xrotation
		JOINT rknee
		{
			OFFSET -0.043257 -0.383688 -0.004843
			CHANNELS 3 Zrotation Yrotation Xrotation
			JOINT rankle
			{
				OFFSET 0.019056 -0.420046 -0.034562
				CHANNELS 3 Zrotation Yrotation Xrotation
				JOINT rtoe
				{
					OFFSET -0.034840 -0.062106 0.130323
					CHANNELS 3 Zrotation Yrotation Xrotation
					End Site
					{
						OFFSET 0.000000 0.000000 0.000000
					}
				}
			}
		}
	}
	JOINT lowerback
	{
		OFFSET 0.004439 0.124404 -0.038385
		CHANNELS 3 Zrotation Yrotation Xrotation
		JOINT upperback
		{
			OFFSET 0.004488 0.137956 0.026820
			CHANNELS 3 Zrotation Yrotation Xrotation
			JOINT chest
			{
				OFFSET -0.002265 0.056032 0.002855
				CHANNELS 3 Zrotation Yrotation Xrotation
				JOINT lowerneck
				{
					OFFSET -0.013390 0.211636 -0.033468
					CHANNELS 3 Zrotation Yrotation Xrotation
					JOINT upperneck
					{
						OFFSET 0.010113 0.088937 0.050410
						CHANNELS 3 Zrotation Yrotation Xrotation
						End Site
						{
							OFFSET 0.000000 0.000000 0.000000
						}
					}
				}
				JOINT lclavicle
				{
					OFFSET 0.071702 0.114000 -0.018898
					CHANNELS 3 Zrotation Yrotation Xrotation
					JOINT lshoulder
					{
						OFFSET 0.122921 0.045205 -0.019046
						CHANNELS 3 Zrotation Yrotation Xrotation
						JOINT lelbow
						{
							OFFSET 0.255332 -0.015649 -0.022946
							CHANNELS 3 Zrotation Yrotation Xrotation
							JOINT lwrist
							{
								OFFSET 0.265709 0.012698 -0.007375
								CHANNELS 3 Zrotation Yrotation Xrotation
								End Site
								{
									OFFSET 0.000000 0.000000 0.000000
								}
							}
						}
					}
				}
				JOINT rclavicle
				{
					OFFSET -0.082954 0.112472 -0.023707
					CHANNELS 3 Zrotation Yrotation Xrotation
					JOINT rshoulder
					{
						OFFSET -0.113228 0.046853 -0.008472
						CHANNELS 3 Zrotation Yrotation Xrotation
						JOINT relbow
						{
							OFFSET -0.260127 -0.014369 -0.031269
							CHANNELS 3 Zrotation Yrotation Xrotation
							JOINT rwrist
							{
								OFFSET -0.269108 0.006794 -0.006027
								CHANNELS 3 Zrotation Yrotation Xrotation
								End Site
								{
									OFFSET 0.000000 0.000000 0.000000
								}
							}
						}
					}
				}
			}
		}
	}
}
MOTION
Frames: 7
Frame Time: 0.033333
-0.123518 0.224086 0.971106 92.418873 2.846069 103.373077 10.291810 0.274736 -43.615922 -3.087217 -1.921966 36.161722 -6.157227 4.303584 -7.145068 0.000000 -0.000000 0.000000 -2.081731 2.450809 -42.059916 -3.491403 -2.035541 34.886597 5.400853 -3.933350 -7.223172 0.000000 -0.000000 0.000000 -0.909359 1.258274 46.068762 -2.943645 -5.222874 -0.361980 3.314852 0.629148 3.759678 -15.226610 1.222184 2.144160 15.838317 1.228862 -22.955399 29.072017 -29.480553 -23.256065 -16.668645 -37.991778 -18.941540 70.205912 -47.606167 -47.121618 -2.885513 -4.521456 3.666691 -22.972310 23.581537 -10.102326 36.605423 10.986673 6.934343 102.638993 72.728946 130.318856 34.924042 22.054139 -21.935353 
-0.123769 0.224690 0.970091 92.595341 3.012319 103.442734 10.189781 0.298257 -43.734680 -2.810291 -2.245768 36.435652 -5.738569 4.257557 -7.281959 0.000000 -0.000000 0.000000 -2.156255 2.287313 -42.060393 -3.082075 -2.230242 34.996208 5.390856 -4.033151 -7.501288 0.000000 -0.000000 0.000000 -0.616535 1.347715 46.082708 -2.276163 -6.085305 0.065473 2.989408 -0.370272 3.455224 -14.697979 2.340761 2.429581 14.626800 1.673225 -22.870654 27.761823 -28.806254 -22.056337 -18.765195 -35.319682 -16.366714 57.988832 -49.698394 -35.767558 -7.502448 -3.424838 2.910056 -22.808990 20.657015 -10.167587 35.415458 10.110414 8.073096 140.453465 66.925491 168.374990 34.294130 25.206128 -25.455583 
-0.124161 0.226344 0.969428 92.065713 2.803131 103.413371 9.917102 0.502552 -43.637896 -2.627479 -1.853657 36.708637 -5.140463 4.078372 -7.458753 0.000000 -0.000000 0.000000 -2.468828 2.144815 -42.180286 -2.578652 -1.638224 35.137032 5.489033 -4.207494 -7.405022 0.000000 -0.000000 0.000000 -0.468638 1.558747 45.571764 -1.872403 -6.594694 0.533424 2.461449 -0.943231 3.360673 -12.993943 2.798281 3.061650 13.722765 2.044849 -22.409159 25.957439 -27.576179 -20.029183 -21.850065 -30.839740 -11.769456 41.641774 -55.224479 -20.576324 -11.213881 -4.722368 -1.486050 -24.361492 18.266324 -11.831109 33.638028 12.750168 6.056286 166.235625 60.091865 -167.166304 31.761030 26.691827 -29.631662 
-0.124081 0.228700 0.969781 90.965737 2.510877 102.943067 9.687009 0.872732 -42.937535 -2.517385 -1.094197 36.941021 -4.674297 3.799466 -7.592777 0.000000 -0.000000 0.000000 -2.513735 2.286520 -41.900760 -2.536921 -0.558799 35.208117 5.511391 -4.151625 -6.926572 0.000000 -0.000000 0.000000 -0.541188 1.907048 45.364338 -1.759739 -6.446897 1.152008 1.989024 -0.869368 3.132680 -10.186583 2.801310 3.507581 12.952903 1.960853 -21.860139 25.149661 -26.523171 -18.251271 -25.998378 -25.947220 -6.002441 21.099660 -60.779286 0.356235 -14.466751 -7.881812 -8.352408 -27.420175 16.978307 -14.102643 31.973990 17.321503 0.861066 -173.791407 56.424214 -148.153320 27.105367 24.743076 -31.449743 
-0.122644 0.231947 0.970746 89.903699 1.810628 103.311546 9.162559 0.936633 -43.094195 -2.361499 0.234659 37.275197 -4.040629 3.424284 -8.092020 0.000000 -0.000000 0.000000 -3.124181 2.108637 -42.597196 -2.693129 0.174187 35.617180 5.695079 -3.562532 -6.710594 0.000000 -0.000000 0.000000 -0.112641 2.029572 45.497812 -2.097995 -5.823490 -0.873544 1.773497 -0.829738 3.280746 -8.428060 1.323394 5.255080 12.376515 2.700269 -22.253682 22.600971 -26.852809 -14.850806 -31.240041 -21.119480 -0.339510 1.117169 -66.240589 24.262335 -14.765651 -10.032247 -10.737217 -30.082786 17.324468 -15.758942 28.307261 22.232240 -7.363093 -156.962670 56.883006 -131.423999 24.549353 20.617665 -27.029713 
-0.121456 0.235292 0.971501 88.845633 1.003209 103.078827 8.941434 0.432730 -42.502048 -2.692901 1.777456 37.184602 -3.578525 3.778940 -8.573910 0.000000 -0.000000 0.000000 -3.936534 1.913130 -42.651647 -2.291205 1.258102 35.903675 5.765985 -3.572564 -6.578713 0.000000 -0.000000 0.000000 0.595881 1.587308 44.886807 -3.243388 -4.755062 0.505963 1.084229 -0.353007 2.924560 -6.544782 -1.106300 4.455182 11.946817 3.215267 -21.707652 16.794106 -26.088465 -12.007677 -33.793901 -16.792596 3.852181 -16.252384 -71.495898 41.168508 -17.008624 -13.105987 -14.211434 -30.058803 19.490807 -17.187401 19.392864 26.617653 -15.870494 -135.120870 60.543985 -110.742572 24.458536 14.300100 -15.039806 
-0.120759 0.237464 0.971585 87.875232 0.389087 102.758455 9.046278 -0.102726 -41.945404 -3.229781 3.182279 37.057412 -3.266842 4.431831 -9.005793 0.000000 -0.000000 0.000000 -4.588229 2.218254 -42.599335 -1.940374 2.375405 36.091092 5.826912 -4.032207 -6.400161 0.000000 -0.000000 0.000000 0.980707 0.909283 44.205408 -4.658710 -2.883225 2.146360 0.570453 0.620240 3.043846 -5.017419 -4.173331 3.301210 12.039517 3.421776 -21.280720 11.650505 -23.040100 -10.555797 -36.376572 -14.432306 7.920462 -33.356484 -77.167768 54.659431 -16.606370 -14.895065 -21.339658 -29.812433 21.378761 -18.035328 10.341806 29.840226 -21.194408 -102.891787 63.674748 -81.903623 21.470781 7.004424 -2.648910 
